HIERARCHY
ROOT Hips
{
	OFFSET 0.000000 0.000000 0.000000
	CHANNELS 6 Xposition Yposition Zposition Zrotation Yrotation Xrotation 
	JOINT LHipJoint
	{
		OFFSET 0.000000 0.000000 0.000000
		CHANNELS 3 Zrotation Yrotation Xrotation
		JOINT LeftUpLeg
		{
			OFFSET 1.363060 -1.794630 0.839290
			CHANNELS 3 Zrotation Yrotation Xrotation
			JOINT LeftLeg
			{
				OFFSET 2.448110 -6.726130 0.000000
				CHANNELS 3 Zrotation Yrotation Xrotation
				JOINT LeftFoot
				{
					OFFSET 2.562200 -7.039590 0.000000
					CHANNELS 3 Zrotation Yrotation Xrotation
					JOINT LeftToeBase
					{
						OFFSET 0.157640 -0.433110 2.322550
						CHANNELS 3 Zrotation Yrotation Xrotation
						End Site
						{
							OFFSET 0.000000 0.000000 0.000000
						}
					}
				}
			}
		}
	}
	JOINT RHipJoint
	{
		OFFSET 0.000000 0.000000 0.000000
		CHANNELS 3 Zrotation Yrotation Xrotation
		JOINT RightUpLeg
		{
			OFFSET -1.305520 -1.794630 0.839290
			CHANNELS 3 Zrotation Yrotation Xrotation
			JOINT RightLeg
			{
				OFFSET -2.542530 -6.985550 0.000000
				CHANNELS 3 Zrotation Yrotation Xrotation
				JOINT RightFoot
				{
					OFFSET -2.568260 -7.056230 0.000000
					CHANNELS 3 Zrotation Yrotation Xrotation
					JOINT RightToeBase
					{
						OFFSET -0.164730 -0.452590 2.363150
						CHANNELS 3 Zrotation Yrotation Xrotation
						End Site
						{
							OFFSET 0.000000 0.000000 0.000000
						}
					}
				}
			}
		}
	}
	JOINT LowerBack
	{
		OFFSET 0.000000 0.000000 0.000000
		CHANNELS 3 Zrotation Yrotation Xrotation
		JOINT Spine
		{
			OFFSET 0.028270 2.035590 -0.193380
			CHANNELS 3 Zrotation Yrotation Xrotation
			JOINT Spine1
			{
				OFFSET 0.056720 2.048850 -0.042750
				CHANNELS 3 Zrotation Yrotation Xrotation
				JOINT Neck
				{
					OFFSET 0.000000 0.000000 0.000000
					CHANNELS 3 Zrotation Yrotation Xrotation
					JOINT Neck1
					{
						OFFSET -0.054170 1.746240 0.172020
						CHANNELS 3 Zrotation Yrotation Xrotation
						JOINT Head
						{
							OFFSET 0.104070 1.761360 -0.123970
							CHANNELS 3 Zrotation Yrotation Xrotation
							End Site
							{
								OFFSET 0.000000 0.000000 0.000000
							}
						}
					}
				}
				JOINT LeftShoulder
				{
					OFFSET 0.000000 0.000000 0.000000
					CHANNELS 3 Zrotation Yrotation Xrotation
					JOINT LeftArm
					{
						OFFSET 3.362410 1.200890 -0.311210
						CHANNELS 3 Zrotation Yrotation Xrotation
						JOINT LeftForeArm
						{
							OFFSET 4.983000 -0.000000 -0.000000
							CHANNELS 3 Zrotation Yrotation Xrotation
							JOINT LeftHand
							{
								OFFSET 3.483560 -0.000000 -0.000000
								CHANNELS 3 Zrotation Yrotation Xrotation
								JOINT LeftFingerBase
								{
									OFFSET 0.000000 0.000000 0.000000
									CHANNELS 3 Zrotation Yrotation Xrotation
									JOINT LeftHandIndex1
									{
										OFFSET 0.715260 -0.000000 -0.000000
										CHANNELS 3 Zrotation Yrotation Xrotation
										End Site
										{
											OFFSET 0.000000 0.000000 0.000000
										}
									}
								}
								JOINT LThumb
								{
									OFFSET 0.000000 0.000000 0.000000
									CHANNELS 3 Zrotation Yrotation Xrotation
									End Site
									{
										OFFSET 0.000000 0.000000 0.000000
									}
								}
							}
						}
					}
				}
				JOINT RightShoulder
				{
					OFFSET 0.000000 0.000000 0.000000
					CHANNELS 3 Zrotation Yrotation Xrotation
					JOINT RightArm
					{
						OFFSET -3.136600 1.374050 -0.404650
						CHANNELS 3 Zrotation Yrotation Xrotation
						JOINT RightForeArm
						{
							OFFSET -5.241900 -0.000000 -0.000000
							CHANNELS 3 Zrotation Yrotation Xrotation
							JOINT RightHand
							{
								OFFSET -3.444170 -0.000000 -0.000000
								CHANNELS 3 Zrotation Yrotation Xrotation
								JOINT RightFingerBase
								{
									OFFSET 0.000000 0.000000 0.000000
									CHANNELS 3 Zrotation Yrotation Xrotation
									JOINT RightHandIndex1
									{
										OFFSET -0.622530 -0.000000 -0.000000
										CHANNELS 3 Zrotation Yrotation Xrotation
										End Site
										{
											OFFSET 0.000000 0.000000 0.000000
										}
									}
								}
								JOINT RThumb
								{
									OFFSET 0.000000 0.000000 0.000000
									CHANNELS 3 Zrotation Yrotation Xrotation
									End Site
									{
										OFFSET 0.000000 0.000000 0.000000
									}
								}
							}
						}
					}
				}
			}
		}
	}
}
MOTION
Frames: 8
Frame Time: 0.008333
-2.399741 16.899696 0.533037 -17.257673 83.735934 -9.375144 -9.698751 1.338039 1.283065 -17.810065 9.929023 -34.398354 -2.905628 -0.236149 11.293893 1.232495 7.835428 0.807756 1.566700 0.000000 -5.894600 9.929390 -3.333188 -1.274101 2.963858 -12.099587 3.520308 2.127055 -1.204822 20.742003 0.873883 9.052502 -0.549931 0.770500 -0.000000 -74.399299 -0.988571 0.651717 -1.145634 -1.365686 0.596868 -3.441368 -7.728094 0.493807 -0.233623 11.036483 -1.251125 -4.942636 -4.488349 -0.366444 0.670404 0.000000 0.000000 0.000000 -6.722506 11.758649 1.899371 -68.067574 14.675813 8.082919 -3.253726 -22.602342 -0.002808 1.180822 4.871928 0.053042 -0.048704 -0.070317 -0.000000 0.000000 0.000000 0.000000 0.000000 0.000000 0.000000 20.436425 4.275123 0.412614 67.165842 27.346595 11.125258 2.548216 34.227451 0.009337 0.677620 6.825923 0.039903 0.043026 -0.206951 0.000000 0.000000 0.000000 0.000000 0.000000 0.000000 0.000000 
-2.245896 16.918991 0.503807 -13.706915 83.853753 -5.887471 -9.735088 1.428762 1.385268 -17.994141 9.315885 -33.854572 -2.865146 -0.195691 11.741484 1.285231 8.135952 0.634033 1.585700 0.000000 -4.751400 10.053051 -3.352887 -1.343678 1.959285 -12.564462 2.622348 1.907401 -1.446539 23.034300 0.922509 9.922176 1.130369 1.105500 0.000000 -76.658100 -1.505764 0.585633 -1.230293 -1.464659 0.561680 -3.459948 -7.764576 0.452780 -0.234701 11.160733 -1.315777 -4.938135 -4.517881 -0.368719 0.669557 0.000000 0.000000 0.000000 -6.520986 11.581646 1.879083 -68.072676 14.362375 8.107376 -3.265659 -22.538794 -0.002826 1.224857 4.889638 0.055148 -0.049171 -0.069010 -0.000000 0.000000 0.000000 0.000000 0.000000 0.000000 0.000000 20.719122 4.136464 0.420389 67.558526 26.593656 10.852917 2.585851 33.525604 0.009640 0.850364 6.654724 0.049292 0.042372 -0.200642 0.000000 0.000000 0.000000 0.000000 0.000000 0.000000 0.000000 
-2.095188 16.938948 0.471041 -10.777390 83.960599 -2.979375 -9.762644 1.491052 1.488341 -18.128425 8.670525 -33.305367 -2.821536 -0.174795 12.138269 1.348675 8.467068 0.283496 1.581600 0.000000 -3.834700 10.175344 -3.374440 -1.391256 1.080084 -12.899613 1.571125 1.670926 -1.688370 25.475685 0.938290 10.729158 2.964778 1.518900 -0.000001 -78.528200 -1.924219 0.524357 -1.324512 -1.543625 0.524647 -3.479867 -7.793028 0.410198 -0.237382 11.247215 -1.371484 -4.933560 -4.542822 -0.370691 0.669193 0.000000 0.000000 0.000000 -6.328263 11.369319 1.862901 -68.115183 14.005505 8.136627 -3.272949 -22.501788 -0.002851 1.269891 4.913343 0.057355 -0.049538 -0.067208 -0.000000 0.000000 0.000000 0.000000 0.000000 0.000000 0.000000 20.937173 4.002356 0.432929 67.925115 25.828433 10.536465 2.625948 32.804363 0.009972 1.057344 6.452254 0.059880 0.041552 -0.194005 0.000000 0.000000 0.000000 0.000000 0.000000 0.000000 0.000000 
-1.948385 16.958613 0.436482 -7.846707 84.062036 -0.049389 -9.784904 1.531297 1.582835 -18.273322 8.008055 -32.708019 -2.779287 -0.172428 12.450200 1.424107 8.849444 -0.193541 1.561599 -0.000000 -3.151800 10.296912 -3.384958 -1.427684 0.249335 -13.130155 0.387733 1.417965 -1.925944 28.066367 0.920045 11.474797 4.890924 2.004000 0.000001 -79.923100 -2.321633 0.464950 -1.410417 -1.617309 0.488683 -3.498791 -7.814048 0.368620 -0.244905 11.310868 -1.415850 -4.927152 -4.564330 -0.372426 0.669194 0.000000 0.000000 0.000000 -6.116014 11.114606 1.853118 -68.193826 13.613708 8.171829 -3.277869 -22.509586 -0.002887 1.314414 4.940864 0.059563 -0.049916 -0.064988 -0.000000 0.000000 0.000000 0.000000 0.000000 0.000000 0.000000 21.115395 3.876928 0.453434 68.263216 25.062571 10.185031 2.666856 32.071299 0.010320 1.301320 6.219714 0.071462 0.040426 -0.187238 0.000000 0.000000 0.000000 0.000000 0.000000 0.000000 0.000000 
-1.805290 16.977366 0.398742 -5.790037 84.127327 2.044195 -9.793554 1.554975 1.662693 -18.373353 7.410352 -32.153354 -2.739612 -0.178954 12.750313 1.502564 9.212991 -0.789548 1.512200 0.000000 -2.702400 10.416738 -3.384141 -1.432027 -0.405938 -13.167442 -0.913216 1.153658 -2.147730 30.751150 0.863941 12.030139 6.845735 2.519800 -0.000000 -80.754900 -2.598380 0.418815 -1.500906 -1.668967 0.457826 -3.518679 -7.830375 0.332770 -0.254670 11.340338 -1.442479 -4.922631 -4.582217 -0.373882 0.669192 0.000000 0.000000 0.000000 -5.918224 10.846645 1.846202 -68.295654 13.181301 8.240010 -3.276340 -22.578399 -0.002930 1.353572 4.969285 0.061673 -0.050160 -0.062368 -0.000000 0.000000 0.000000 0.000000 0.000000 0.000000 0.000000 21.236052 3.773367 0.481416 68.561775 24.303070 9.816052 2.711699 31.328236 0.010700 1.577650 5.971062 0.083544 0.039250 -0.180384 0.000000 0.000000 0.000000 0.000000 0.000000 0.000000 0.000000 
-1.666268 16.994570 0.359743 -3.943475 84.168599 3.945120 -9.795779 1.567354 1.721204 -18.490705 6.886431 -31.600119 -2.706819 -0.194141 13.002100 1.582747 9.568383 -1.444077 1.443200 -0.000000 -2.465000 10.532428 -3.364541 -1.416059 -0.971520 -13.054280 -2.306204 0.883938 -2.352914 33.516023 0.775281 12.382042 8.744561 3.027399 -0.000000 -81.036000 -2.839270 0.378537 -1.581903 -1.713981 0.430874 -3.537612 -7.843040 0.300953 -0.269296 11.353053 -1.451238 -4.918214 -4.598122 -0.375165 0.669062 0.000000 0.000000 0.000000 -5.710650 10.558574 1.843858 -68.410967 12.721279 8.346958 -3.271023 -22.726628 -0.002987 1.384144 4.995496 0.063285 -0.050392 -0.059460 -0.000000 0.000000 0.000000 0.000000 0.000000 0.000000 0.000000 21.329027 3.690783 0.518541 68.823198 23.559935 9.437448 2.758425 30.576160 0.011089 1.883723 5.710336 0.095725 0.037917 -0.173603 0.000000 0.000000 0.000000 0.000000 0.000000 0.000000 0.000000 
-1.531136 17.009953 0.318940 -2.743437 84.173580 5.217997 -9.791393 1.574734 1.753671 -18.597051 6.491711 -31.093823 -2.682184 -0.210799 13.245255 1.656386 9.863335 -2.135628 1.350000 0.000000 -2.412100 10.641412 -3.325908 -1.373532 -1.392408 -12.766136 -3.766365 0.614719 -2.536472 36.314163 0.658500 12.438845 10.512467 3.461800 -0.000000 -80.800700 -2.998155 0.348512 -1.655152 -1.744384 0.408895 -3.555783 -7.854052 0.274553 -0.287441 11.345032 -1.435048 -4.915360 -4.612343 -0.376262 0.668659 0.000000 0.000000 0.000000 -5.514957 10.273869 1.844199 -68.522956 12.226069 8.518570 -3.260184 -22.960102 -0.003052 1.402278 5.014975 0.064298 -0.050560 -0.056282 -0.000000 0.000000 0.000000 0.000000 0.000000 0.000000 0.000000 21.388257 3.639517 0.563274 69.044955 22.836819 9.053901 2.808255 29.810742 0.011485 2.209912 5.453756 0.107504 0.036599 -0.166977 0.000000 0.000000 0.000000 0.000000 0.000000 0.000000 0.000000 
-1.399771 17.023388 0.277484 -1.811548 84.155172 6.228593 -9.785096 1.579682 1.758409 -18.723189 6.224970 -30.611520 -2.667505 -0.228709 13.460788 1.720504 10.096616 -2.820701 1.241900 -0.000000 -2.497500 10.741931 -3.268204 -1.313224 -1.720731 -12.345486 -5.269077 0.352441 -2.701133 39.117398 0.520260 12.172217 12.073754 3.767700 0.000000 -80.142400 -3.121520 0.321399 -1.713331 -1.768350 0.387931 -3.571903 -7.864618 0.249356 -0.309853 11.327309 -1.395890 -4.913207 -4.626296 -0.377264 0.667865 0.000000 0.000000 0.000000 -5.324613 9.990709 1.847728 -68.616120 11.704679 8.762113 -3.245567 -23.287640 -0.003124 1.405405 5.024040 0.064613 -0.050736 -0.052917 -0.000000 0.000000 0.000000 0.000000 0.000000 0.000000 0.000000 21.434074 3.614879 0.615200 69.230414 22.140588 8.666904 2.859716 29.027233 0.011867 2.546923 5.207049 0.118583 0.035300 -0.160580 0.000000 0.000000 0.000000 0.000000 0.000000 0.000000 0.000000 
